:SAMPLES-PER-SECOND 30
:FRAME-RANGE 1-2091
:FULLY-SPECIFIED
:DEGREES
1111
root  7.63815 38.9235 90.0145 -174.914 -34.7135 177.082
RightUpLeg  1.88327 -8.69594 -6.81219
RightLeg  6.85346 -2.28455 0.250969
RightFoot  -14.7703 0.214378 10.4928
RightToes  5.82063e-011 0 -3.6325e-017
Spine  6.92314 0.653483 7.93818
Spine1  -1.03014 1.2691 -1.94245
HEad  5.54894 10.58 -3.86581
LeftShoulder1  1.57249 -0.643934 -31.866
LeftArm  -1.34041 1.13438 -31.0623
LeftForeArm  9.18943 2.46656 -17.8638
LeftHand  0.343061 0.668042 -8.60798
RightShoulder  11.9546 17.5181 49.7508
RightArm  30.5028 11.2696 18.5945
RightForeArm  4.36184 15.5083 11.0925
RightHand  0.037703 2.23531 0.389354
LeftUpLeg  -27.2689 16.1761 -0.253612
LeftLeg  27.1611 2.32787 1.62958
LeftFoot  -5.85192 0.512934 -9.95082
LeftToes  -6.27584e-011 -2.25241e-010 2.80627e-011
1112
root  7.15045 38.8931 89.6979 -174.936 -34.9289 177.08
RightUpLeg  3.27301 -8.66049 -7.2186
RightLeg  5.98394 -2.43676 0.102709
RightFoot  -15.0218 0.252383 11.0063
RightToes  5.82063e-011 0 -3.6325e-017
Spine  6.67848 0.702285 7.51166
Spine1  -0.709589 1.26287 -1.82934
HEad  5.96179 10.4003 -3.71033
LeftShoulder1  1.56039 -0.641236 -31.5979
LeftArm  -2.41987 3.303 -30.1266
LeftForeArm  9.65566 2.76449 -17.7412
LeftHand  0.335038 0.720615 -8.51329
RightShoulder  12.1115 17.9232 49.4454
RightArm  31.3334 11.7127 18.6724
RightForeArm  4.66324 15.9568 10.7056
RightHand  0.0335472 2.42735 0.302347
LeftUpLeg  -26.7766 17.508 -0.93817
LeftLeg  22.2853 2.75625 1.56722
LeftFoot  -5.47631 0.534431 -9.7759
LeftToes  -6.27584e-011 -2.25241e-010 2.80627e-011
1113
root  6.5634 38.8091 89.3307 -175.091 -35.1599 177.176
RightUpLeg  4.74801 -8.66995 -7.64969
RightLeg  5.48926 -2.55596 -0.0891389
RightFoot  -15.5929 0.328142 11.663
RightToes  5.82063e-011 0 -3.6325e-017
Spine  6.3047 0.66618 7.12385
Spine1  -0.390269 1.20648 -1.82027
HEad  6.38258 10.5892 -3.47088
LeftShoulder1  1.52849 -0.593021 -31.26
LeftArm  -1.64687 5.45432 -29.1488
LeftForeArm  9.10326 2.42523 -17.8084
LeftHand  0.317529 0.874767 -8.37844
RightShoulder  12.1489 17.9486 49.539
RightArm  32.0451 12.0188 18.3882
RightForeArm  4.83308 15.7663 10.9232
RightHand  0.0327629 2.40496 0.293348
LeftUpLeg  -25.9672 19.2748 -1.75586
LeftLeg  18.4383 3.24519 1.52955
LeftFoot  -5.16719 0.523072 -9.11191
LeftToes  -6.27584e-011 -2.25241e-010 2.80627e-011
1114
root  5.87026 38.6696 88.9287 -175.342 -35.3871 177.331
RightUpLeg  6.1161 -8.85969 -8.26331
RightLeg  5.68597 -2.20805 -0.210465
RightFoot  -16.5126 0.449201 12.3931
RightToes  5.82063e-011 0 -3.6325e-017
Spine  5.89664 0.634271 6.77616
Spine1  -0.114578 1.17742 -1.86199
HEad  6.54743 10.6021 -3.21163
LeftShoulder1  1.50129 -0.529927 -31.1678
LeftArm  -0.651257 7.23492 -27.9443
LeftForeArm  8.31823 2.11132 -17.9158
LeftHand  0.320705 0.861956 -8.43443
RightShoulder  11.9375 17.5642 49.5708
RightArm  31.1518 11.8219 18.1435
RightForeArm  6.29938 14.8324 11.6428
RightHand  0.0271137 2.41048 0.203446
LeftUpLeg  -24.6726 20.8725 -2.43528
LeftLeg  15.6282 3.17685 1.17365
LeftFoot  -4.69372 0.551728 -9.00343
LeftToes  -6.27584e-011 -2.25241e-010 2.80627e-011
1115
root  5.07287 38.508 88.5023 -175.477 -35.5499 177.057
RightUpLeg  7.63641 -9.22136 -9.44968
RightLeg  6.15689 -1.62902 -0.436087
RightFoot  -17.5988 0.615522 13.3983
RightToes  5.82063e-011 0 -3.6325e-017
Spine  5.68996 0.590417 6.14874
Spine1  -0.0143214 1.2331 -2.38416
HEad  6.43848 10.2924 -2.70436
LeftShoulder1  1.47139 -0.473631 -30.9405
LeftArm  -0.565621 8.72799 -26.9001
LeftForeArm  7.7094 2.26037 -17.9696
LeftHand  0.326729 0.855976 -8.57754
RightShoulder  11.6085 16.8444 49.9181
RightArm  29.1007 11.1053 17.5306
RightForeArm  8.71502 13.2399 12.7372
RightHand  0.0204716 2.48507 0.102458
LeftUpLeg  -22.4102 19.5315 -2.18725
LeftLeg  13.6951 5.30844 0.458434
LeftFoot  -1.86661 0.648232 -7.68041
LeftToes  -6.27584e-011 -2.25241e-010 2.80627e-011
1116
root  4.20229 38.3644 88.0821 -175.302 -35.9021 176.164
RightUpLeg  9.19398 -9.44433 -11.1196
RightLeg  6.81046 -1.17391 -1.00812
RightFoot  -18.4519 0.799748 14.821
RightToes  5.82063e-011 0 -3.6325e-017
Spine  5.81146 0.461986 4.48871
Spine1  -0.218756 1.10458 -2.66045
HEad  5.96889 10.1356 -1.88835
LeftShoulder1  1.45067 -0.41793 -30.9368
LeftArm  0.187589 9.75911 -25.9184
LeftForeArm  6.16446 2.43705 -18.1457
LeftHand  0.308789 1.12738 -8.6839
RightShoulder  11.144 15.9304 50.184
RightArm  27.2168 9.76949 16.7917
RightForeArm  10.6151 11.5368 13.8083
RightHand  0.0189651 2.28248 0.0990772
LeftUpLeg  -20.9131 18.6567 -2.957
LeftLeg  13.5885 6.03857 -0.199396
LeftFoot  2.3545 0.305092 -2.65972
LeftToes  -6.27584e-011 -2.25241e-010 2.80627e-011
1117
root  3.29902 38.1881 87.6867 -174.779 -37.0833 174.65
RightUpLeg  9.29701 -8.47895 -12.7766
RightLeg  10.827 -2.65278 -2.04358
RightFoot  -19.3001 1.02423 16.5115
RightToes  5.82063e-011 0 -3.6325e-017
Spine  6.68748 0.174079 2.08682
Spine1  -1.13929 0.577257 -2.03196
HEad  4.96106 9.49978 -1.14286
LeftShoulder1  1.48785 -0.463542 -31.4526
LeftArm  2.22865 9.41311 -25.0082
LeftForeArm  3.98188 2.77153 -18.5153
LeftHand  0.290199 1.30975 -8.5759
RightShoulder  10.3499 14.3689 50.6903
RightArm  23.5565 8.75129 15.7791
RightForeArm  14.1201 8.50957 15.2999
RightHand  0.0101484 2.22352 -0.0299181
LeftUpLeg  -21.1944 18.9902 -5.69443
LeftLeg  17.0342 3.8639 1.33838
LeftFoot  0.0740577 0.280648 -2.81299
LeftToes  -6.27584e-011 -2.25241e-010 2.80627e-011
1118
root  2.4294 38.0573 87.3354 -174.403 -38.4988 172.991
RightUpLeg  8.44839 -3.15311 -13.9128
RightLeg  17.5123 -7.56929 -2.94243
RightFoot  -19.2937 1.3486 21.0786
RightToes  5.82063e-011 0 -3.6325e-017
Spine  7.39959 0.0635504 -0.223638
Spine1  -0.797987 0.248846 -1.97607
HEad  3.06496 8.33196 -0.591965
LeftShoulder1  1.58659 -0.682577 -31.8533
LeftArm  4.85737 7.32869 -25.3661
LeftForeArm  1.88847 3.3838 -18.9413
LeftHand  0.249527 1.60876 -8.05898
RightShoulder  9.47802 12.86 50.712
RightArm  15.98 7.44343 14.9706
RightForeArm  19.6965 3.77637 16.5248
RightHand  0.0113212 2.04221 0.00314
LeftUpLeg  -20.0503 16.5194 -7.21121
LeftLeg  19.08 4.64286 2.07214
LeftFoot  -1.82103 0.198454 -2.25196
LeftToes  -6.27584e-011 -2.25241e-010 2.80627e-011
1119
root  1.63851 37.9724 87.0209 -173.861 -38.5822 171.866
RightUpLeg  4.90375 0.109651 -15.057
RightLeg  27.083 -7.85674 -4.56249
RightFoot  -17.1014 1.27048 27.1049
RightToes  5.82063e-011 0 -3.6325e-017
Spine  7.70125 0.436584 -1.98577
Spine1  -0.396886 0.464096 -2.97139
HEad  1.92103 7.63622 -0.166362
LeftShoulder1  1.66506 -0.878377 -31.9534
LeftArm  7.23668 5.39192 -26.4324
LeftForeArm  0.844758 2.61535 -19.1764
LeftHand  0.224973 1.71195 -7.52381
RightShoulder  9.17807 12.2882 50.8867
RightArm  10.6433 5.25527 14.0942
RightForeArm  21.6166 -0.692095 17.1004
RightHand  0.0115204 1.7436 0.0330401
LeftUpLeg  -19.0948 15.284 -8.08492
LeftLeg  20.4629 5.88062 2.11555
LeftFoot  -3.90776 0.141468 -1.81609
LeftToes  -6.27584e-011 -2.25241e-010 2.80627e-011
1120
root  0.876818 37.9742 86.6627 -173.397 -38.3739 171.167
RightUpLeg  -0.813807 2.72316 -15.7413
RightLeg  38.8391 -8.20157 -7.28004
RightFoot  -10.6646 -0.24283 28.1443
RightToes  5.82063e-011 0 -3.6325e-017
Spine  8.16498 0.587289 -4.14194
Spine1  -0.841568 0.246982 -2.6698
HEad  1.67022 8.17207 0.23773
LeftShoulder1  1.67061 -0.884596 -32.0262
LeftArm  9.39411 4.06058 -27.4777
LeftForeArm  -0.630754 1.99472 -19.3614
LeftHand  0.243618 1.59903 -7.85284
RightShoulder  9.14545 12.127 51.2241
RightArm  11.4743 3.96474 13.606
RightForeArm  19.1912 -4.3938 17.785
RightHand  0.0395217 1.50705 0.52858
LeftUpLeg  -17.7074 14.6409 -8.25788
LeftLeg  20.8082 6.82488 1.29865
LeftFoot  -5.81697 0.132249 -2.01674
LeftToes  -6.27584e-011 -2.25241e-010 2.80627e-011
1121
root  0.0486851 38.1105 86.24 -173.699 -38.7474 171.081
RightUpLeg  -6.94884 3.84477 -15.4053
RightLeg  50.1549 -8.49085 -11.0783
RightFoot  0.207398 -1.48359 14.6118
RightToes  5.82063e-011 0 -3.6325e-017
Spine  8.60906 0.274392 -5.61236
Spine1  -1.18351 -0.391869 -1.63146
HEad  1.50863 8.86091 0.588605
LeftShoulder1  1.70894 -0.962815 -32.2187
LeftArm  9.95918 2.50044 -28.1506
LeftForeArm  -1.26853 1.85659 -19.4128
LeftHand  0.276086 1.42443 -8.43112
RightShoulder  8.78053 11.4131 51.5316
RightArm  10.3057 3.65575 13.4447
RightForeArm  23.3616 -4.21531 17.6459
RightHand  0.0829172 1.22042 1.34391
LeftUpLeg  -15.0664 12.6533 -7.72467
LeftLeg  19.872 8.54953 0.548061
LeftFoot  -7.22824 0.132842 -2.49088
LeftToes  -6.27584e-011 -2.25241e-010 2.80627e-011
1122
root  -0.695377 38.1286 85.798 -174.016 -39.376 171.052
RightUpLeg  -11.6954 4.21751 -14.9483
RightLeg  57.2959 -5.94621 -10.3034
RightFoot  1.31059 -1.37673 12.4545
RightToes  5.82063e-011 0 -3.6325e-017
Spine  8.87412 -0.109267 -7.12877
Spine1  -1.13691 -1.12776 -1.01689
HEad  1.52072 9.50455 0.747766
LeftShoulder1  1.80315 -1.15517 -32.6629
LeftArm  10.6328 0.0468743 -28.4335
LeftForeArm  -1.99805 1.41998 -19.4521
LeftHand  0.294466 1.26559 -8.59629
RightShoulder  8.26241 10.4708 51.7601
RightArm  9.98734 2.54163 13.4151
RightForeArm  26.2628 -4.26549 17.4827
RightHand  0.123221 1.56672 1.91883
LeftUpLeg  -13.1521 10.5164 -7.3265
LeftLeg  19.9731 10.1502 0.163898
LeftFoot  -8.93061 0.113003 -2.82408
LeftToes  -6.27584e-011 -2.25241e-010 2.80627e-011
